<?xml version="1.0" encoding="UTF-8" standalone="no"?>
<svg
   xmlns:dc="http://purl.org/dc/elements/1.1/"
   xmlns:cc="http://creativecommons.org/ns#"
   xmlns:rdf="http://www.w3.org/1999/02/22-rdf-syntax-ns#"
   xmlns:svg="http://www.w3.org/2000/svg"
   xmlns="http://www.w3.org/2000/svg"
   xml:space="preserve"
   enable-background="new 225.774 350.079 141.732 141.732"
   viewBox="225.774 350.079 141.732 141.732"
   height="141.732px"
   width="141.732px"
   y="0px"
   x="0px"
   id="Capa_1"
   version="1.1"><metadata
   id="metadata4633"><rdf:RDF><cc:Work
       rdf:about=""><dc:format>image/svg+xml</dc:format><dc:type
         rdf:resource="http://purl.org/dc/dcmitype/StillImage" /><dc:title></dc:title></cc:Work></rdf:RDF></metadata><defs
   id="defs4631" />
<g
   display="none"
   id="Logo_WHT">
	<rect
   height="841.891"
   width="595.279"
   display="inline"
   y="0"
   x="0"
   id="Turn_-_2x0" />
	<g
   display="inline"
   id="Corona_copia">
		<path
   id="path4438"
   d="M297.64,170.585c-138.27,0-250.36,112.09-250.36,250.36    s112.091,250.36,250.36,250.36s250.359-112.09,250.359-250.36S435.909,170.585,297.64,170.585z M297.64,621.305    c-110.656,0-200.36-89.704-200.36-200.36s89.704-200.36,200.36-200.36s200.359,89.704,200.359,200.36    S408.296,621.305,297.64,621.305z"
   stroke-miterlimit="10"
   stroke="#FFFFFF"
   fill="#FFFFFF" />
	</g>
	<g
   display="inline"
   id="Texto_corona">
		<path
   id="path4441"
   d="M51.613,420.945c0-135.877,110.15-246.027,246.027-246.027c135.876,0,246.027,110.15,246.027,246.027"
   fill="none" />
		<text
   id="text4443"
   font-size="50"
   font-family="'EuphemiaCAS'"
   transform="matrix(0.44 -0.898 0.898 0.44 105.7937 344.115)">B</text>

		<text
   id="text4445"
   font-size="50"
   font-family="'EuphemiaCAS'"
   transform="matrix(0.44 -0.898 0.898 0.44 123.864 308.4187)">O</text>

		<text
   id="text4447"
   font-size="50"
   font-family="'EuphemiaCAS'"
   transform="matrix(0.44 -0.898 0.898 0.44 156.0769 270.5398)">S</text>

		<text
   id="text4449"
   font-size="50"
   font-family="'EuphemiaCAS'"
   transform="matrix(0.44 -0.898 0.898 0.44 187.3455 246.1023)">C</text>

		<text
   id="text4451"
   font-size="50"
   font-family="'EuphemiaCAS'"
   transform="matrix(0.44 -0.898 0.898 0.44 225.1511 226.9714)">O</text>

		<text
   id="text4453"
   font-size="50"
   font-family="'EuphemiaCAS'"
   transform="matrix(0.44 -0.898 0.898 0.44 273.4714 215.7693)">V</text>

		<text
   id="text4455"
   font-size="50"
   font-family="'EuphemiaCAS'"
   transform="matrix(0.44 -0.898 0.898 0.44 314.4172 215.1472)">E</text>

		<text
   id="text4457"
   font-size="50"
   font-family="'EuphemiaCAS'"
   transform="matrix(0.44 -0.898 0.898 0.44 351.6438 221.5046)">R</text>

		<text
   id="text4459"
   font-size="50"
   font-family="'EuphemiaCAS'"
   transform="matrix(0.44 -0.898 0.898 0.44 389.1672 235.7312)">Y</text>

		<text
   id="text4461"
   font-size="50"
   font-family="'EuphemiaCAS'"
   transform="matrix(0.44 -0.898 0.898 0.44 422.9329 256.7244)">S</text>

		<text
   id="text4463"
   font-size="50"
   font-family="'EuphemiaCAS'"
   transform="matrix(0.44 -0.898 0.898 0.44 452.1917 283.821)">A</text>

		<text
   id="text4465"
   font-size="50"
   font-family="'EuphemiaCAS'"
   transform="matrix(0.44 -0.898 0.898 0.44 476.5129 317.575)">T</text>

		<path
   id="path4467"
   d="M51.613,420.945c0,135.876,110.15,246.027,246.027,246.027c135.876,0,246.027-110.15,246.027-246.027"
   fill="none" />
		<text
   id="text4469"
   font-size="50"
   font-family="'EuphemiaCAS'"
   transform="matrix(0.1189 0.9929 -0.9929 0.1189 52.614 435.7742)">S</text>

		<text
   id="text4471"
   font-size="50"
   font-family="'EuphemiaCAS'"
   transform="matrix(0.1189 0.9929 -0.9929 0.1189 57.7 473.2605)">A</text>

		<text
   id="text4473"
   font-size="50"
   font-family="'EuphemiaCAS'"
   transform="matrix(0.1189 0.9929 -0.9929 0.1189 69.3054 510.946)">L</text>

		<text
   id="text4475"
   font-size="50"
   font-family="'EuphemiaCAS'"
   transform="matrix(0.1189 0.9929 -0.9929 0.1189 83.8552 541.5134)">E</text>

		<text
   id="text4477"
   font-size="50"
   font-family="'EuphemiaCAS'"
   transform="matrix(0.1189 0.9929 -0.9929 0.1189 103.2976 570.905)">S</text>

		<text
   id="text4479"
   font-size="50"
   font-family="'EuphemiaCAS'"
   transform="matrix(0.1189 0.9929 -0.9929 0.1189 128.1833 598.0115)">I</text>

		<text
   id="text4481"
   font-size="50"
   font-family="'EuphemiaCAS'"
   transform="matrix(0.1189 0.9929 -0.9929 0.1189 142.1335 610.9402)">A</text>

		<text
   id="text4483"
   font-size="50"
   font-family="'EuphemiaCAS'"
   transform="matrix(0.1189 0.9929 -0.9929 0.1189 174.8435 633.7283)">N</text>

		<text
   id="text4485"
   font-size="50"
   font-family="'EuphemiaCAS'"
   transform="matrix(0.1189 0.9929 -0.9929 0.1189 214.4871 652.3728)">O</text>

		<text
   id="text4487"
   font-size="50"
   font-family="'EuphemiaCAS'"
   transform="matrix(0.1189 0.9929 -0.9929 0.1189 262.0955 663.8484)">S</text>

		<text
   id="text4489"
   font-size="50"
   font-family="'EuphemiaCAS'"
   transform="matrix(0.1189 0.9929 -0.9929 0.1189 299.4641 666.2742)"> </text>

		<text
   id="text4491"
   font-size="50"
   font-family="'EuphemiaCAS'"
   transform="matrix(0.1189 0.9929 -0.9929 0.1189 332.4592 663.8523)">L</text>

		<text
   id="text4493"
   font-size="50"
   font-family="'EuphemiaCAS'"
   transform="matrix(0.1189 0.9929 -0.9929 0.1189 365.8362 656.8669)">A</text>

		<text
   id="text4495"
   font-size="50"
   font-family="'EuphemiaCAS'"
   transform="matrix(0.1189 0.9929 -0.9929 0.1189 402.595 642.7683)"> </text>

		<text
   id="text4497"
   font-size="50"
   font-family="'EuphemiaCAS'"
   transform="matrix(0.1189 0.9929 -0.9929 0.1189 431.8977 626.6052)">C</text>

		<text
   id="text4499"
   font-size="50"
   font-family="'EuphemiaCAS'"
   transform="matrix(0.1189 0.9929 -0.9929 0.1189 464.9934 600.8025)">U</text>

		<text
   id="text4501"
   font-size="50"
   font-family="'EuphemiaCAS'"
   transform="matrix(0.1189 0.9929 -0.9929 0.1189 494.4504 567.5378)">E</text>

		<text
   id="text4503"
   font-size="50"
   font-family="'EuphemiaCAS'"
   transform="matrix(0.1189 0.9929 -0.9929 0.1189 513.5129 537.8816)">S</text>

		<text
   id="text4505"
   font-size="50"
   font-family="'EuphemiaCAS'"
   transform="matrix(0.1189 0.9929 -0.9929 0.1189 528.9163 503.3962)">T</text>

		<text
   id="text4507"
   font-size="50"
   font-family="'EuphemiaCAS'"
   transform="matrix(0.1189 0.9929 -0.9929 0.1189 538.8704 466.864)">A</text>

	</g>
	<g
   display="inline"
   id="Cube_2_copia">
		<path
   d="M401.549,357.209    c2.389,1.074,2.376,2.824-0.03,3.906l-95.47,42.96c-2.405,1.083-6.293,1.088-8.682,0.015l-94.823-42.67    c-2.39-1.076-2.377-2.826,0.029-3.908l95.469-42.961c2.407-1.083,6.294-1.088,8.683-0.014L401.549,357.209z"
   stroke-miterlimit="10"
   stroke-width="5.1481"
   stroke="#FFFFFF"
   fill="none"
   id="Tapa" />
		<g
   id="g4511">
			<path
   id="path4513"
   d="M381.922,377.722c-2.123-1.636-4.272-3.266-6.457-4.883     l-16.108,7.249c0.601,2.282,1.186,4.583,1.756,6.898L381.922,377.722z"
   stroke-miterlimit="10"
   stroke="#FFFFFF"
   fill="#FFFFFF" />
			<path
   id="path4515"
   d="M303.088,509.625v-15.059c-2.672,1.113-5.337,2.196-7.992,3.244     v16.222c2.673,1.256,5.336,2.464,7.992,3.646v-4.24c-1.488-0.677-2.979-1.362-4.473-2.063     C300.104,510.802,301.595,510.219,303.088,509.625z"
   stroke-miterlimit="10"
   stroke="#FFFFFF"
   fill="#FFFFFF" />
			<path
   id="path4517"
   d="M471.925,335.86c-13.729-28.12-61.74-35.014-121.312-21.796     c-25.557-55.409-60.118-89.441-90.81-83.337c-22.962,4.566-39.327,30.728-47.124,69.146c-38.78-5.733-68.947,0.759-81.052,20.799     c-13.72,22.714-1.246,57.864,29.339,94.174c-33.697,33.438-49.254,67.339-37.612,91.186     c13.729,28.12,61.741,35.016,121.312,21.796c25.556,55.409,60.119,89.441,90.809,83.337     c22.963-4.566,39.327-30.728,47.124-69.146c38.78,5.734,68.946-0.757,81.052-20.798c13.72-22.715,1.245-57.864-29.339-94.173     C468.01,393.606,483.566,359.707,471.925,335.86z M454.24,521.377c-10.336,17.111-36.607,22.442-70.988,17.287     c2.246-12.033,3.676-25.202,4.229-39.235l-13.631,6.068c-0.511,10.969-1.564,21.321-3.147,30.896     c-12.591-2.651-26.052-6.561-40.051-11.66l-4.896,2.18c15.435,5.709,30.352,10.036,44.352,12.902     c-6.566,36.082-20.799,60.468-41.093,64.505c-26.768,5.324-57.337-26.09-80.715-77.319c9.072-2.12,18.397-4.699,27.897-7.732     l-19.124-8.515c-4.796,1.362-9.53,2.61-14.186,3.728c-1.612-3.946-3.177-8-4.7-12.136l-4.856-2.162     c1.884,5.186,3.845,10.244,5.877,15.159c-55.149,12.558-98.875,7.295-110.883-17.301c-10.056-20.598,4.262-50.394,34.913-80.536     c9.347,10.801,20.285,21.678,32.583,32.338v-5.018c-11.334-9.894-21.422-19.904-30.051-29.777     c8.813-8.428,18.895-16.86,30.051-25.111v-4.682c-12.007,8.845-22.851,17.961-32.344,27.132     c-27.819-32.74-39.412-63.676-27.565-83.287c10.692-17.704,38.445-22.796,74.587-16.713c-1.931,13.222-2.94,27.625-2.966,42.893     l3.738-1.683c0.01-14.518,0.916-28.153,2.665-40.603c16.313,3.02,34.234,8.25,52.999,15.555l17.293-7.782     c-24.128-10.091-47.314-16.945-68.154-20.364c6.849-34.057,20.793-56.93,40.392-60.828c26.836-5.338,57.493,26.25,80.894,77.712     c-4.928,1.303-9.923,2.742-14.967,4.304l5.303,2.386c3.771-1.144,7.52-2.237,11.213-3.229c1.465,3.323,2.896,6.733,4.297,10.208     l17.702,7.967c-2.768-7.434-5.684-14.606-8.746-21.452c54.899-12.405,98.387-7.099,110.355,17.42     c10.263,21.021-4.865,51.626-36.836,82.402c-3.796-4.096-7.818-8.191-12.043-12.274v18.833c0.772,0.789,1.558,1.578,2.313,2.366     c-0.761,0.664-1.538,1.327-2.313,1.989v17.401c3.894-3.19,7.646-6.4,11.222-9.627C453.985,469.497,466.34,501.345,454.24,521.377     z"
   stroke-miterlimit="10"
   stroke="#FFFFFF"
   fill="#FFFFFF" />
		</g>
		<path
   d="M408,479.291    c0,2.575-1.858,5.49-4.15,6.512l-90.972,40.503c-2.292,1.021-4.15-0.239-4.15-2.814V421.313c0-2.574,1.858-5.489,4.15-6.509    l90.972-40.504c2.292-1.021,4.15,0.239,4.15,2.814V479.291L408,479.291z"
   stroke-miterlimit="10"
   stroke-width="5.4988"
   stroke="#FFFFFF"
   fill="#FFFFFF"
   id="Cara_Dcha" />
		<polygon
   id="polygon4520"
   points="405.863,465.618 310.864,507.316 310.864,450.984 405.863,409.286   "
   fill="none" />
		<text
   id="text4522"
   letter-spacing="0.916"
   font-size="25"
   font-family="'LaoUI-Bold'"
   transform="matrix(1 -0.4389 0 1 317.5569 466.5603)">MARK</text>

		<text
   id="text4524"
   letter-spacing="0.916"
   font-size="25"
   font-family="'LaoUI-Bold'"
   transform="matrix(1 -0.4389 0 1 354.3684 480.4041)">I</text>

		<path
   d="M195.824,478.817    c0,2.575,1.857,5.49,4.15,6.511l90.971,40.503c2.293,1.021,4.15-0.238,4.15-2.813V420.84c0-2.575-1.857-5.489-4.15-6.51    l-90.971-40.504c-2.292-1.021-4.15,0.239-4.15,2.814V478.817z"
   stroke-miterlimit="10"
   stroke-width="5.4988"
   stroke="#FFFFFF"
   fill="none"
   id="Cara_Izq" />
	</g>
	<rect
   height="545"
   width="547.999"
   fill="none"
   display="inline"
   y="149"
   x="25"
   id="_x3C_Sector_x3E__1_" />
</g>
<g
   id="Logo_BLK">
	<g
   id="Corona">
		<path
   id="path4530"
   d="M296.828,350.755c-38.623,0-69.932,31.482-69.932,70.317    c0,38.835,31.31,70.317,69.932,70.317c38.62,0,69.93-31.481,69.93-70.317C366.758,382.238,335.448,350.755,296.828,350.755z     M296.828,477.346c-30.909,0-55.966-25.194-55.966-56.274c0-31.08,25.057-56.274,55.966-56.274    c30.908,0,55.964,25.194,55.964,56.274C352.792,452.152,327.736,477.346,296.828,477.346z"
   stroke-miterlimit="10"
   stroke-width="0.2801"
   stroke="#FFFFFF" />
	</g>
	<g
   id="Texto_corona_1_">
		<g
   id="g4533">
			<path
   id="path4535"
   d="M236.198,389.563c0.46-0.888,1.023-1.475,1.686-1.761c0.664-0.286,1.376-0.23,2.138,0.169     c0.601,0.314,0.973,0.743,1.118,1.286c0.145,0.542,0.124,1.107-0.064,1.695l0.024,0.012c0.403-0.608,0.935-1.033,1.595-1.275     c0.661-0.24,1.389-0.153,2.184,0.264c0.761,0.398,1.219,1.001,1.374,1.806c0.154,0.806-0.044,1.738-0.595,2.801l-1.399,2.699     l-9.477-4.965L236.198,389.563z M236.093,391.666l3.356,1.758l0.494-0.955c0.427-0.823,0.606-1.531,0.539-2.122     c-0.067-0.593-0.384-1.036-0.948-1.332c-0.528-0.276-1.017-0.324-1.465-0.142c-0.448,0.184-0.913,0.738-1.394,1.667     L236.093,391.666z M240.235,393.836l3.786,1.983l0.848-1.637c0.363-0.721,0.496-1.358,0.399-1.913     c-0.097-0.554-0.424-0.976-0.98-1.268c-0.605-0.316-1.197-0.375-1.777-0.177c-0.58,0.199-1.103,0.746-1.566,1.643     L240.235,393.836z"
   fill="#FFFFFF" />
			<path
   id="path4537"
   d="M252.674,384.225c-0.965,1.167-2.111,1.73-3.437,1.688c-1.326-0.041-2.652-0.614-3.976-1.723     c-1.195-0.999-1.895-2.185-2.096-3.558c-0.202-1.372,0.131-2.581,0.997-3.629c0.945-1.143,2.071-1.697,3.378-1.662     c1.307,0.034,2.608,0.595,3.906,1.679c1.207,1.007,1.929,2.197,2.169,3.569C253.858,381.962,253.543,383.174,252.674,384.225z      M251.957,383.546c0.567-0.686,0.76-1.563,0.58-2.632c-0.179-1.069-0.883-2.115-2.111-3.143     c-0.782-0.654-1.708-1.068-2.777-1.241c-1.068-0.174-1.973,0.187-2.714,1.083c-0.714,0.865-0.957,1.813-0.723,2.843     c0.233,1.03,0.847,1.96,1.839,2.79c1.168,0.977,2.282,1.467,3.341,1.473C250.451,384.725,251.306,384.334,251.957,383.546z"
   fill="#FFFFFF" />
			<path
   id="path4539"
   d="M257.762,375.573c0.475,0.083,0.982,0.087,1.519,0.012c0.537-0.076,1.044-0.304,1.523-0.684     c0.549-0.435,0.888-0.912,1.014-1.432c0.126-0.519-0.001-1.021-0.38-1.506c-0.373-0.474-0.798-0.705-1.281-0.695     c-0.482,0.009-1.109,0.14-1.884,0.392l-0.613,0.172c-0.827,0.281-1.608,0.4-2.345,0.354c-0.735-0.045-1.354-0.387-1.854-1.026     c-0.51-0.649-0.665-1.363-0.467-2.141c0.199-0.776,0.675-1.464,1.429-2.061c0.578-0.458,1.129-0.753,1.65-0.885     c0.522-0.131,1.072-0.161,1.649-0.088l-0.054,1.027c-0.401-0.03-0.824-0.012-1.269,0.059c-0.446,0.071-0.897,0.287-1.354,0.649     c-0.488,0.387-0.805,0.827-0.949,1.319c-0.144,0.492-0.072,0.922,0.215,1.288c0.351,0.448,0.809,0.655,1.374,0.617     c0.564-0.037,1.098-0.135,1.598-0.292l1.055-0.294c1.06-0.339,1.874-0.447,2.442-0.324c0.568,0.122,1.077,0.472,1.528,1.046     c0.599,0.765,0.795,1.568,0.584,2.409c-0.209,0.841-0.704,1.571-1.487,2.189c-0.317,0.253-0.626,0.461-0.928,0.628     c-0.301,0.165-0.607,0.292-0.917,0.381c-0.31,0.088-0.627,0.14-0.953,0.152c-0.326,0.014-0.669-0.008-1.031-0.064     L257.762,375.573z"
   fill="#FFFFFF" />
			<path
   id="path4541"
   d="M273.909,366.132c-0.261,1.418-1.043,2.457-2.345,3.119c-1.274,0.646-2.485,0.659-3.629,0.037     c-1.146-0.622-2.079-1.651-2.8-3.088c-0.716-1.424-0.949-2.79-0.7-4.1c0.249-1.31,0.991-2.277,2.224-2.904     c1.164-0.592,2.238-0.688,3.222-0.292l-0.32,1.038c-0.796-0.339-1.629-0.287-2.497,0.154c-0.844,0.428-1.361,1.131-1.551,2.105     c-0.191,0.975,0.02,2.069,0.631,3.286c0.621,1.236,1.393,2.134,2.318,2.69c0.924,0.559,1.828,0.611,2.713,0.163     c0.961-0.489,1.56-1.309,1.793-2.455L273.909,366.132z"
   fill="#FFFFFF" />
			<path
   id="path4543"
   d="M282.516,365.185c-1.462,0.377-2.718,0.158-3.769-0.657c-1.05-0.813-1.789-2.061-2.217-3.738     c-0.387-1.516-0.262-2.888,0.375-4.118c0.636-1.23,1.611-2.015,2.924-2.354c1.431-0.37,2.666-0.154,3.706,0.645     c1.04,0.798,1.768,2.019,2.188,3.662c0.389,1.526,0.282,2.918-0.324,4.172C284.794,364.048,283.833,364.845,282.516,365.185z      M282.332,364.212c0.858-0.221,1.526-0.818,2.004-1.79c0.477-0.973,0.517-2.235,0.121-3.79c-0.253-0.992-0.762-1.873-1.526-2.643     c-0.766-0.771-1.708-1.012-2.831-0.722c-1.084,0.279-1.831,0.904-2.242,1.877c-0.412,0.973-0.457,2.088-0.136,3.345     c0.377,1.479,0.993,2.533,1.849,3.162C280.424,364.281,281.345,364.467,282.332,364.212z"
   fill="#FFFFFF" />
			<path
   id="path4545"
   d="M296.728,352.406l1.226-0.052l-3.061,10.882l-1.116,0.047l-3.823-10.596l1.254-0.052l3.12,8.943     L296.728,352.406z"
   fill="#FFFFFF" />
			<path
   id="path4547"
   d="M309.791,354.596l-4.498-0.677l-0.538,3.621l3.588,0.539l-0.134,0.89l-3.587-0.54l-0.632,4.245     l4.702,0.707l-0.141,0.936l-5.848-0.879l1.58-10.626l5.646,0.849L309.791,354.596z"
   fill="#FFFFFF" />
			<path
   id="path4549"
   d="M314.038,365.802l-1.093-0.387l3.535-10.139l2.735,0.964c1.067,0.376,1.786,0.916,2.151,1.619     c0.368,0.704,0.397,1.494,0.093,2.37c-0.226,0.646-0.637,1.147-1.236,1.503s-1.202,0.52-1.808,0.489l1.229,5.556l-1.301-0.458     l-1.082-5.265c-0.061-0.012-0.631-0.204-1.716-0.576L314.038,365.802z M315.837,360.644l1.048,0.37     c0.863,0.305,1.6,0.342,2.206,0.116c0.605-0.228,1.018-0.65,1.231-1.266c0.246-0.708,0.229-1.288-0.053-1.742     c-0.283-0.452-0.875-0.838-1.776-1.155l-1.222-0.432L315.837,360.644z"
   fill="#FFFFFF" />
			<path
   id="path4551"
   d="M325.123,370.667l2.448-4.241l0.2-6.636l1.086,0.633l-0.262,5.429l4.563-2.92l1.086,0.633l-5.601,3.354     l-2.506,4.342L325.123,370.667z"
   fill="#FFFFFF" />
			<path
   id="path4553"
   d="M333.899,373.913c0.006,0.486,0.099,0.987,0.274,1.503c0.174,0.516,0.492,0.975,0.951,1.377     c0.528,0.461,1.06,0.705,1.589,0.732c0.53,0.026,0.997-0.192,1.399-0.658c0.394-0.456,0.54-0.921,0.44-1.396     c-0.1-0.474-0.345-1.069-0.735-1.787l-0.281-0.572c-0.434-0.764-0.694-1.513-0.788-2.248c-0.094-0.736,0.124-1.411,0.656-2.026     c0.54-0.624,1.207-0.91,2.005-0.86c0.795,0.05,1.557,0.392,2.279,1.023c0.557,0.486,0.949,0.975,1.175,1.466     s0.356,1.028,0.395,1.611l-1.014,0.141c-0.044-0.402-0.145-0.816-0.295-1.243c-0.154-0.427-0.451-0.832-0.891-1.215     c-0.47-0.41-0.958-0.641-1.466-0.69c-0.507-0.05-0.914,0.101-1.218,0.452c-0.373,0.433-0.487,0.923-0.346,1.474     s0.337,1.059,0.585,1.524l0.485,0.986c0.53,0.982,0.788,1.767,0.773,2.351c-0.013,0.585-0.26,1.152-0.736,1.705     c-0.634,0.736-1.382,1.078-2.242,1.028c-0.861-0.049-1.668-0.401-2.419-1.058c-0.307-0.267-0.568-0.533-0.785-0.8     c-0.22-0.267-0.4-0.543-0.546-0.834c-0.143-0.289-0.251-0.594-0.327-0.912c-0.074-0.318-0.117-0.662-0.13-1.03L333.899,373.913z"
   fill="#FFFFFF" />
			<path
   id="path4555"
   d="M350.477,378.671l0.69,0.894l-6.271,9.403l-0.786-1.019l2.181-3.149l-2.211-2.867l-3.579,1.334     l-0.707-0.916L350.477,378.671z M344.876,381.615l1.919,2.487l2.918-4.229L344.876,381.615z"
   fill="#FFFFFF" />
			<path
   id="path4557"
   d="M358.359,393.457l-1.529-2.965l-8.614,4.492l-0.534-1.034l8.614-4.492l-1.522-2.953l0.872-0.454     l3.586,6.951L358.359,393.457z"
   fill="#FFFFFF" />
		</g>
		<g
   id="g4559">
			<path
   id="path4561"
   d="M230.734,426.74c-0.316,0.368-0.581,0.802-0.793,1.303c-0.213,0.501-0.28,1.058-0.205,1.665     c0.087,0.698,0.319,1.234,0.696,1.612c0.376,0.376,0.87,0.526,1.479,0.447c0.596-0.073,1.014-0.319,1.254-0.741     c0.241-0.42,0.454-1.027,0.639-1.826l0.17-0.615c0.187-0.857,0.489-1.592,0.908-2.2c0.418-0.612,1.029-0.968,1.833-1.069     c0.816-0.104,1.504,0.132,2.064,0.704c0.559,0.572,0.899,1.335,1.018,2.295c0.092,0.733,0.059,1.36-0.099,1.876     c-0.157,0.52-0.417,1.008-0.776,1.468l-0.849-0.577c0.234-0.329,0.436-0.703,0.606-1.124c0.169-0.419,0.219-0.919,0.146-1.5     c-0.078-0.622-0.289-1.121-0.634-1.499c-0.346-0.378-0.747-0.538-1.208-0.48c-0.563,0.07-0.976,0.359-1.236,0.864     c-0.26,0.505-0.452,1.015-0.576,1.527l-0.293,1.06c-0.258,1.088-0.587,1.844-0.984,2.271c-0.399,0.425-0.958,0.683-1.68,0.773     c-0.96,0.123-1.745-0.124-2.354-0.739c-0.608-0.613-0.975-1.417-1.098-2.411c-0.051-0.404-0.068-0.779-0.054-1.123     c0.014-0.345,0.063-0.675,0.149-0.986c0.083-0.313,0.205-0.612,0.362-0.899s0.352-0.571,0.587-0.855L230.734,426.74z"
   fill="#FFFFFF" />
			<path
   id="path4563"
   d="M241.229,436.869l0.315,1.087l-9.268,6.429l-0.359-1.238l3.178-2.124l-1.008-3.481l-3.818-0.081     l-0.321-1.114L241.229,436.869z M234.945,437.54l0.875,3.021l4.259-2.854L234.945,437.54z"
   fill="#FFFFFF" />
			<path
   id="path4565"
   d="M236.182,453.183l-2.522-5.445l9.687-4.536l0.489,1.056l-8.834,4.137l2.033,4.39L236.182,453.183z"
   fill="#FFFFFF" />
			<path
   id="path4567"
   d="M249.232,455.749l-2.485-3.83l-3.051,1.999l1.982,3.056l-0.748,0.491l-1.981-3.058l-3.575,2.346     l2.596,4.003l-0.789,0.518l-3.229-4.98l8.951-5.87l3.118,4.811L249.232,455.749z"
   fill="#FFFFFF" />
			<path
   id="path4569"
   d="M245.45,463.259c-0.055,0.481-0.028,0.991,0.079,1.524c0.106,0.535,0.363,1.03,0.767,1.488     c0.465,0.527,0.959,0.839,1.482,0.934c0.522,0.097,1.013-0.062,1.471-0.471c0.449-0.4,0.655-0.843,0.618-1.324     c-0.038-0.485-0.205-1.107-0.501-1.869l-0.206-0.605c-0.329-0.813-0.493-1.59-0.492-2.331c0.002-0.741,0.306-1.382,0.911-1.924     c0.616-0.547,1.314-0.747,2.098-0.593c0.784,0.153,1.493,0.591,2.131,1.312c0.489,0.554,0.814,1.09,0.975,1.604     c0.161,0.519,0.223,1.066,0.185,1.65l-1.025,0.009c0.008-0.405-0.035-0.829-0.132-1.271c-0.096-0.444-0.337-0.884-0.724-1.321     c-0.413-0.468-0.869-0.76-1.366-0.874c-0.497-0.116-0.918-0.02-1.266,0.29c-0.425,0.38-0.603,0.852-0.533,1.415     c0.07,0.565,0.198,1.096,0.385,1.589l0.354,1.039c0.399,1.045,0.554,1.856,0.466,2.433c-0.089,0.578-0.405,1.11-0.949,1.595     c-0.724,0.646-1.51,0.891-2.356,0.729c-0.848-0.159-1.602-0.616-2.263-1.363c-0.269-0.305-0.494-0.602-0.676-0.896     c-0.182-0.293-0.327-0.591-0.433-0.897c-0.105-0.306-0.175-0.621-0.208-0.946c-0.032-0.326-0.031-0.674,0.004-1.04     L245.45,463.259z"
   fill="#FFFFFF" />
			<path
   id="path4571"
   d="M250.654,471.876l7.144-7.992l0.862,0.78l-7.145,7.991L250.654,471.876z"
   fill="#FFFFFF" />
			<path
   id="path4573"
   d="M263.2,468.298l0.919,0.65l-3.257,10.839l-1.047-0.743l1.167-3.654l-2.949-2.088l-3.034,2.328     l-0.942-0.666L263.2,468.298z M258.703,472.76l2.559,1.813l1.559-4.902L258.703,472.76z"
   fill="#FFFFFF" />
			<path
   id="path4575"
   d="M268.895,474.171l-3.76,7.973l-1.042-0.495l4.572-9.713l1.047,0.501l1.023,10.298l3.778-8.011l1.047,0.5     l-4.578,9.71l-1.005-0.479L268.895,474.171z"
   fill="#FFFFFF" />
			<path
   id="path4577"
   d="M279.648,487.883c-1.462-0.38-2.457-1.181-2.985-2.401c-0.53-1.224-0.579-2.675-0.15-4.353     c0.388-1.516,1.157-2.656,2.305-3.424c1.147-0.769,2.377-0.986,3.69-0.646c1.43,0.37,2.409,1.158,2.937,2.36     c0.526,1.206,0.581,2.629,0.16,4.271c-0.392,1.528-1.153,2.692-2.284,3.496C282.189,487.992,280.964,488.223,279.648,487.883z      M279.953,486.941c0.858,0.223,1.729,0.023,2.614-0.597c0.884-0.62,1.525-1.707,1.924-3.262c0.254-0.991,0.231-2.01-0.069-3.055     c-0.3-1.047-1.012-1.714-2.134-2.006c-1.083-0.279-2.038-0.095-2.865,0.558c-0.827,0.652-1.401,1.607-1.723,2.863     c-0.379,1.479-0.345,2.702,0.102,3.668C278.25,486.076,278.967,486.686,279.953,486.941z"
   fill="#FFFFFF" />
			<path
   id="path4579"
   d="M288.853,487.291c0.293,0.386,0.664,0.732,1.108,1.043s0.972,0.489,1.579,0.537     c0.699,0.056,1.269-0.065,1.711-0.36c0.443-0.296,0.689-0.75,0.736-1.365c0.048-0.602-0.109-1.064-0.47-1.386     c-0.36-0.322-0.911-0.654-1.649-0.997l-0.565-0.292c-0.798-0.357-1.452-0.802-1.962-1.337c-0.509-0.536-0.733-1.209-0.67-2.021     c0.065-0.823,0.432-1.455,1.103-1.891c0.67-0.435,1.483-0.614,2.439-0.538c0.735,0.057,1.338,0.215,1.809,0.476     c0.473,0.26,0.896,0.612,1.272,1.06l-0.733,0.718c-0.273-0.296-0.597-0.569-0.973-0.822c-0.374-0.251-0.852-0.398-1.431-0.445     c-0.622-0.05-1.15,0.057-1.589,0.32c-0.438,0.264-0.675,0.628-0.711,1.093c-0.044,0.571,0.154,1.033,0.593,1.393     c0.44,0.356,0.897,0.65,1.371,0.875l0.974,0.503c1.008,0.474,1.68,0.95,2.013,1.427c0.335,0.479,0.474,1.083,0.416,1.813     c-0.076,0.971-0.473,1.693-1.194,2.169c-0.722,0.475-1.579,0.673-2.571,0.595c-0.404-0.032-0.772-0.09-1.105-0.174     s-0.644-0.197-0.931-0.345c-0.287-0.146-0.555-0.324-0.803-0.538c-0.248-0.213-0.485-0.462-0.714-0.75L288.853,487.291z"
   fill="#FFFFFF" />
			<path
   id="path4581"
   d="M313.819,487.842l-5.854,1.192l-2.122-10.53l1.134-0.231l1.937,9.604l4.719-0.963L313.819,487.842z"
   fill="#FFFFFF" />
			<path
   id="path4583"
   d="M316.665,475.634l1.055-0.397l7.075,8.806l-1.198,0.454l-2.347-3.024l-3.377,1.274l0.207,3.833     l-1.078,0.407L316.665,475.634z M317.806,481.884l2.929-1.106l-3.151-4.054L317.806,481.884z"
   fill="#FFFFFF" />
			<path
   id="path4585"
   d="M341.1,471.675c0.014,1.442-0.554,2.612-1.707,3.513c-1.127,0.883-2.311,1.129-3.555,0.737     c-1.241-0.39-2.354-1.218-3.335-2.489c-0.975-1.26-1.464-2.556-1.47-3.889s0.536-2.428,1.628-3.278     c1.03-0.806,2.066-1.108,3.107-0.908l-0.116,1.079c-0.846-0.178-1.653,0.032-2.421,0.635c-0.747,0.584-1.12,1.371-1.121,2.364     c0,0.994,0.415,2.026,1.247,3.104c0.845,1.093,1.773,1.825,2.787,2.195c1.014,0.366,1.911,0.247,2.695-0.366     c0.85-0.664,1.281-1.584,1.291-2.755L341.1,471.675z"
   fill="#FFFFFF" />
			<path
   id="path4587"
   d="M337.648,462.254l4.808,4.398c1.062,0.973,1.903,1.41,2.522,1.313c0.619-0.097,1.228-0.475,1.82-1.13     c0.646-0.715,0.986-1.384,1.023-2.013c0.037-0.627-0.468-1.421-1.514-2.377l-4.832-4.42l0.775-0.857l4.778,4.37     c1.307,1.196,1.939,2.251,1.899,3.167c-0.042,0.914-0.514,1.871-1.42,2.872c-0.888,0.98-1.763,1.507-2.629,1.577     c-0.866,0.069-1.938-0.481-3.22-1.654l-4.792-4.384L337.648,462.254z"
   fill="#FFFFFF" />
			<path
   id="path4589"
   d="M347.749,450.599l-2.473,3.842l3.057,1.987l1.971-3.061l0.751,0.488l-1.972,3.062l3.585,2.333     l2.581-4.013l0.79,0.516l-3.212,4.99l-8.97-5.84l3.102-4.818L347.749,450.599z"
   fill="#FFFFFF" />
			<path
   id="path4591"
   d="M356.112,451.02c0.46-0.147,0.909-0.379,1.352-0.695c0.441-0.314,0.788-0.752,1.039-1.31     c0.29-0.642,0.372-1.223,0.246-1.739c-0.127-0.52-0.469-0.907-1.027-1.161c-0.548-0.25-1.033-0.257-1.455-0.025     c-0.425,0.23-0.921,0.637-1.494,1.22l-0.465,0.436c-0.604,0.633-1.243,1.1-1.917,1.4c-0.676,0.301-1.38,0.282-2.117-0.053     c-0.751-0.342-1.215-0.904-1.395-1.684c-0.179-0.784-0.071-1.613,0.323-2.492c0.306-0.675,0.659-1.19,1.062-1.549     c0.403-0.358,0.879-0.64,1.424-0.842l0.423,0.937c-0.37,0.158-0.736,0.371-1.1,0.64c-0.361,0.27-0.665,0.672-0.905,1.203     c-0.256,0.57-0.334,1.107-0.238,1.611c0.1,0.503,0.358,0.85,0.782,1.043c0.517,0.237,1.018,0.207,1.501-0.089     c0.484-0.292,0.912-0.625,1.286-0.998l0.802-0.749c0.784-0.791,1.457-1.263,2.019-1.419c0.561-0.151,1.172-0.079,1.833,0.224     c0.885,0.401,1.425,1.023,1.624,1.867c0.198,0.843,0.094,1.72-0.318,2.632c-0.165,0.373-0.345,0.7-0.536,0.987     c-0.191,0.286-0.404,0.541-0.64,0.763s-0.494,0.415-0.775,0.575c-0.282,0.163-0.599,0.304-0.945,0.422L356.112,451.02z"
   fill="#FFFFFF" />
			<path
   id="path4593"
   d="M354.503,432.989l-0.879,3.221l9.357,2.586l-0.308,1.124l-9.358-2.585l-0.876,3.205l-0.946-0.262     l2.063-7.55L354.503,432.989z"
   fill="#FFFFFF" />
			<path
   id="path4595"
   d="M354.034,429.124l0.146-1.123l11.054-2.153l-0.165,1.279l-3.759,0.665l-0.462,3.595l3.462,1.615     l-0.147,1.149L354.034,429.124z M360.059,431.043l0.403-3.121l-5.039,0.898L360.059,431.043z"
   fill="#FFFFFF" />
		</g>
	</g>
	<g
   id="Cube">
		<path
   d="M325.852,403.171    c0.667,0.301,0.664,0.793-0.009,1.098l-26.666,12.065c-0.673,0.304-1.757,0.305-2.424,0.004l-26.488-11.984    c-0.667-0.302-0.664-0.794,0.008-1.098l26.667-12.066c0.673-0.304,1.758-0.306,2.423-0.004L325.852,403.171z"
   stroke-miterlimit="10"
   stroke-width="1.442"
   stroke="#000000"
   fill="none"
   id="Tapa_1_" />
		<g
   id="g4599">
			<path
   id="path4601"
   d="M320.367,408.932c-0.591-0.46-1.193-0.916-1.802-1.37     l-4.5,2.035c0.168,0.641,0.331,1.287,0.491,1.938L320.367,408.932z"
   stroke-miterlimit="10"
   stroke-width="0.2801"
   stroke="#000000" />
			<path
   id="path4603"
   d="M298.349,445.979v-4.229     c-0.746,0.313-1.49,0.617-2.232,0.911v4.557c0.747,0.352,1.49,0.691,2.232,1.022v-1.191c-0.414-0.188-0.831-0.38-1.248-0.577     C297.516,446.309,297.931,446.146,298.349,445.979z"
   stroke-miterlimit="10"
   stroke-width="0.2801"
   stroke="#000000" />
			<path
   id="path4605"
   d="M345.509,397.175     c-3.834-7.897-17.246-9.834-33.886-6.122c-7.138-15.563-16.792-25.12-25.364-23.406c-6.414,1.283-10.985,8.631-13.164,19.421     c-10.831-1.61-19.258,0.214-22.639,5.841c-3.833,6.38-0.349,16.253,8.195,26.45c-9.413,9.392-13.758,18.913-10.507,25.611     c3.835,7.898,17.247,9.835,33.886,6.122c7.138,15.563,16.792,25.121,25.363,23.406c6.415-1.283,10.985-8.631,13.165-19.419     c10.83,1.61,19.257-0.214,22.639-5.844c3.834-6.379,0.349-16.251-8.196-26.449C344.415,413.394,348.759,403.872,345.509,397.175z      M340.571,449.28c-2.889,4.806-10.227,6.304-19.829,4.856c0.626-3.382,1.025-7.078,1.18-11.021l-3.807,1.704     c-0.143,3.081-0.438,5.988-0.879,8.678c-3.518-0.744-7.276-1.843-11.188-3.274l-1.366,0.612     c4.311,1.603,8.477,2.817,12.388,3.622c-1.835,10.135-5.81,16.983-11.479,18.118c-7.477,1.495-16.015-7.328-22.545-21.717     c2.535-0.596,5.14-1.319,7.793-2.171l-5.342-2.393c-1.339,0.383-2.662,0.735-3.962,1.047c-0.45-1.108-0.888-2.247-1.313-3.409     l-1.356-0.606c0.526,1.456,1.073,2.877,1.641,4.259c-15.404,3.526-27.619,2.048-30.973-4.859     c-2.809-5.786,1.19-14.153,9.751-22.62c2.611,3.032,5.667,6.087,9.102,9.082v-1.41c-3.166-2.777-5.983-5.59-8.394-8.363     c2.463-2.366,5.279-4.734,8.394-7.052v-1.315c-3.354,2.484-6.382,5.044-9.034,7.621c-7.771-9.196-11.009-17.885-7.701-23.393     c2.987-4.973,10.739-6.403,20.835-4.694c-0.54,3.713-0.821,7.759-0.828,12.047l1.043-0.473c0.003-4.077,0.256-7.906,0.745-11.404     c4.557,0.849,9.562,2.317,14.804,4.369l4.83-2.186c-6.739-2.834-13.216-4.76-19.038-5.72c1.915-9.565,5.809-15.99,11.283-17.084     c7.496-1.5,16.059,7.373,22.593,21.826c-1.374,0.366-2.771,0.771-4.18,1.209l1.481,0.67c1.054-0.321,2.102-0.629,3.133-0.907     c0.408,0.934,0.809,1.892,1.199,2.867l4.945,2.237c-0.772-2.088-1.587-4.102-2.443-6.025c15.334-3.484,27.482-1.993,30.825,4.894     c2.867,5.903-1.358,14.499-10.288,23.144c-1.062-1.15-2.185-2.302-3.364-3.447v5.29c0.215,0.222,0.435,0.443,0.646,0.664     c-0.212,0.187-0.43,0.372-0.646,0.56v4.887c1.087-0.896,2.137-1.797,3.135-2.703C340.499,434.709,343.949,443.653,340.571,449.28     z"
   stroke-miterlimit="10"
   stroke-width="0.2801"
   stroke="#000000" />
		</g>
		<path
   d="M327.654,437.461    c0,0.722-0.521,1.541-1.159,1.827l-25.412,11.375c-0.639,0.287-1.159-0.066-1.159-0.79v-28.698c0-0.723,0.521-1.541,1.159-1.827    l25.412-11.377c0.639-0.286,1.159,0.068,1.159,0.791V437.461L327.654,437.461z"
   stroke-miterlimit="10"
   stroke-width="1.5402"
   stroke="#000000"
   id="Cara_Dcha_1_" />
		<g
   id="g4608">
			<path
   id="path4610"
   d="M308.521,431.178l-1.089,0.48v-2.942c0-0.317,0.014-0.675,0.041-1.071l-0.027,0.014     c-0.056,0.327-0.108,0.565-0.153,0.718l-1.146,3.849l-0.897,0.398l-1.168-2.794c-0.03-0.076-0.083-0.281-0.152-0.617l-0.03,0.013     c0.028,0.472,0.042,0.891,0.042,1.257v2.719l-0.992,0.438v-4.918l1.614-0.711l0.999,2.474c0.079,0.199,0.137,0.405,0.172,0.626     l0.021-0.011c0.062-0.298,0.126-0.563,0.195-0.794l0.998-3.348l1.571-0.694v4.916H308.521z"
   fill="#FFFFFF" />
			<path
   id="path4612"
   d="M314.63,428.481l-1.2,0.53l-0.348-0.939l-1.739,0.768l-0.345,1.245l-1.192,0.526l1.778-5.701l1.307-0.576     L314.63,428.481z M312.829,427.332l-0.524-1.419c-0.039-0.107-0.065-0.244-0.082-0.407l-0.028,0.013     c-0.01,0.148-0.038,0.304-0.085,0.465l-0.531,1.899L312.829,427.332z"
   fill="#FFFFFF" />
			<path
   id="path4614"
   d="M320.04,426.094l-1.265,0.558l-0.761-0.93c-0.057-0.071-0.11-0.132-0.163-0.185s-0.105-0.094-0.159-0.124     c-0.053-0.029-0.108-0.046-0.166-0.05c-0.06-0.003-0.122,0.012-0.189,0.04l-0.298,0.132v1.883l-1.102,0.485v-4.916l1.747-0.77     c1.187-0.523,1.78-0.34,1.78,0.551c0,0.172-0.028,0.341-0.079,0.508c-0.052,0.17-0.127,0.333-0.221,0.491     c-0.096,0.158-0.212,0.31-0.346,0.455c-0.136,0.144-0.286,0.276-0.452,0.398v0.013c0.072-0.009,0.143-0.003,0.21,0.019     c0.068,0.021,0.135,0.052,0.198,0.092c0.064,0.041,0.125,0.089,0.183,0.141c0.058,0.054,0.111,0.107,0.159,0.163L320.04,426.094z      M317.041,423.33v1.37l0.477-0.21c0.234-0.105,0.426-0.259,0.57-0.458c0.146-0.204,0.217-0.407,0.217-0.614     c0-0.43-0.255-0.532-0.768-0.306L317.041,423.33z"
   fill="#FFFFFF" />
			<path
   id="path4616"
   d="M325.261,423.789l-1.392,0.614l-1.427-1.507c-0.026-0.027-0.068-0.1-0.128-0.213l-0.016,0.008v2.407     l-1.103,0.484v-4.915l1.103-0.486v2.323l0.016-0.007c0.027-0.076,0.072-0.188,0.138-0.334l1.349-2.646l1.312-0.58l-1.703,3.099     L325.261,423.789z"
   fill="#FFFFFF" />
			<path
   id="path4618"
   d="M314.741,431.941v0.857l-0.408,0.182v3.202l0.408-0.181v0.857l-1.919,0.848v-0.858l0.409-0.179v-3.204     l-0.409,0.182v-0.858L314.741,431.941z"
   fill="#FFFFFF" />
		</g>
		<path
   d="M268.387,437.326    c0,0.724,0.52,1.542,1.16,1.828l25.411,11.377c0.642,0.287,1.159-0.067,1.159-0.791v-28.698c0-0.723-0.518-1.541-1.159-1.828    l-25.411-11.376c-0.64-0.286-1.16,0.067-1.16,0.79V437.326z"
   stroke-miterlimit="10"
   stroke-width="1.5402"
   stroke="#000000"
   fill="none"
   id="Cara_Izq_1_" />
	</g>
	<rect
   height="153.072"
   width="153.07"
   fill="none"
   y="344.693"
   x="220.672"
   id="_x3C_Sector_x3E__2_" />
	<rect
   height="140.625"
   width="139.862"
   fill="none"
   y="350.764"
   x="226.896"
   id="_x3C_Sector_x3E_" />
</g>
<g
   display="none"
   id="by_ddialar_BLK">
	<text
   id="text4624"
   font-size="15"
   font-family="'EuphemiaCAS'"
   display="inline"
   transform="matrix(1 0 0 1 467.884 640.9998)">by ddialar</text>

</g>
<g
   display="none"
   id="by_ddialar_WHT">
	<text
   id="text4627"
   font-size="15"
   font-family="'EuphemiaCAS'"
   fill="#FFFFFF"
   display="inline"
   transform="matrix(1 0 0 1 467.884 640.9998)">by ddialar</text>

</g>
</svg>